<svg width="32" height="32" viewBox="0 0 32 32" fill="none" xmlns="http://www.w3.org/2000/svg">
<path d="M11.3226 17.475C11.3226 17.475 10.3462 16.9542 9.77739 17.1431C9.77739 16.7501 9.77739 16.3581 9.77739 15.9671C9.30929 15.8202 8.84034 15.6724 8.37056 15.5236C8.37056 15.7716 8.37056 16.0195 8.37056 16.2675C8.37056 16.2675 8.39321 16.9056 7.51489 16.7482C6.63657 16.5937 4.739 16.6023 4.739 18.7368C4.739 19.5723 4.739 20.4097 4.739 21.249C4.739 21.249 5.5997 21.724 6.01495 20.9514C6.01495 20.9514 6.79512 22.0931 8.37056 22.0874C8.37056 22.0874 9.342 21.9786 9.6289 20.9028C9.9158 19.8298 9.38982 18.3763 10.6859 18.651C10.6859 18.651 11.6422 18.8083 11.6297 20.3649C11.6171 21.9443 11.4183 23.229 12.503 23.5724C12.6808 23.6239 12.8578 23.6744 13.034 23.724C13.034 22.6711 13.034 21.6277 13.034 20.5938C13.034 20.5938 13.117 18.5508 11.3226 17.475ZM8.38315 19.5666C8.38147 19.5647 8.37979 19.5628 8.37811 19.5609C8.39825 19.784 8.36301 19.9929 8.27745 20.156C8.19188 20.322 8.0585 20.4393 7.89491 20.4908C7.73384 20.5423 7.54761 20.5251 7.36138 20.4421C7.17766 20.362 7.00149 20.219 6.85552 20.033C6.71207 19.847 6.60637 19.6295 6.551 19.4035C6.49564 19.1803 6.49564 18.9571 6.54849 18.7711C6.60134 18.5794 6.70704 18.4306 6.85049 18.3419C6.99394 18.2504 7.16759 18.2218 7.35383 18.2618C7.35215 18.2599 7.35047 18.2571 7.34879 18.2532C8.09625 18.3935 8.43348 18.3563 8.43348 18.3563C8.3756 18.7425 8.3605 19.1517 8.38315 19.5666Z" fill="#143C9C"/>
<path d="M4.73145 14.3447C4.90426 14.402 5.07707 14.4582 5.24988 14.5135C5.24988 14.5135 5.84633 14.7224 6.04515 15.3319C6.08794 15.4692 6.11059 15.6094 6.11059 15.741C6.10807 15.9385 6.11059 15.9928 6.11059 15.9928C6.11059 15.9928 5.15173 15.9499 4.73145 16.794C4.73145 15.9757 4.73145 15.1592 4.73145 14.3447Z" fill="#143C9C"/>
<path fill-rule="evenodd" clip-rule="evenodd" d="M19.7115 0.918857L28.2885 5.4897C29.4174 6.09119 30.3549 6.95669 31.0064 7.99907C31.658 9.04145 32.0007 10.2239 32 11.4275V20.5725C32 23.0218 30.5842 25.2857 28.2885 26.5103L19.7115 31.0811C18.5832 31.6831 17.3031 32 16 32C14.6969 32 13.4168 31.6831 12.2885 31.0811L3.71147 26.5103C2.58255 25.9088 1.64514 25.0433 0.993592 24.0009C0.342042 22.9585 -0.000653059 21.7761 9.34299e-07 20.5725V11.4275C9.34299e-07 8.97824 1.41577 6.71433 3.71147 5.4897L12.2903 0.918857C13.4186 0.316915 14.6987 0 16.0018 0C17.3049 0 18.5832 0.316915 19.7115 0.918857ZM17.9194 3.78515C17.3359 3.47371 16.6739 3.30972 16 3.30972C15.3261 3.30972 14.6641 3.47371 14.0806 3.78515L5.50359 8.35434C4.91953 8.66534 4.43457 9.11303 4.0976 9.65227C3.76063 10.1915 3.58356 10.8033 3.58423 11.4258V20.5708C3.58423 21.8369 4.31541 23.0085 5.50359 23.6423L14.0806 28.2132C14.6641 28.5246 15.3261 28.6886 16 28.6886C16.6739 28.6886 17.3359 28.5246 17.9194 28.2132L26.4964 23.6423C27.0805 23.3313 27.5654 22.8837 27.9024 22.3444C28.2394 21.8052 28.4164 21.1934 28.4158 20.5708V11.4275C28.4158 10.1615 27.6846 8.98983 26.4964 8.356L17.9176 3.78681L17.9194 3.78515Z" fill="#143C9C"/>
<path fill-rule="evenodd" clip-rule="evenodd" d="M13.4817 15.7418L2.9082 10.8598L4.51215 7.90082L15.0838 12.7811C15.6609 13.0459 16.3383 13.0459 16.9154 12.7811L27.4871 7.89917L29.091 10.8614L18.5175 15.7418C17.7358 16.1029 16.8737 16.291 15.9996 16.291C15.1255 16.291 14.2634 16.1029 13.4817 15.7418Z" fill="#143C9C"/>
<path fill-rule="evenodd" clip-rule="evenodd" d="M17.792 15.0535V30.1843H14.2078V15.0535H17.792ZM8.25256 4.85764C8.35784 4.66321 8.50357 4.48984 8.68142 4.34743C8.85928 4.20503 9.06577 4.09637 9.28911 4.02768C9.51245 3.95898 9.74826 3.93159 9.98306 3.94707C10.2179 3.96255 10.4471 4.0206 10.6576 4.11789L22.9461 9.79091C23.3715 9.98732 23.695 10.3317 23.8454 10.7484C23.9958 11.165 23.9608 11.6198 23.7481 12.0126C23.5354 12.4054 23.1624 12.7041 22.7112 12.843C22.26 12.9819 21.7676 12.9496 21.3422 12.7532L9.05363 7.07686C8.62934 6.88051 8.30672 6.53676 8.15655 6.12103C8.00637 5.7053 8.0409 5.24989 8.25256 4.85764Z" fill="#143C9C"/>
</svg>
